#!OML:ASF E:/inclinewalkrobotboard/Project1/Captureday1/Session1/subject1.ASF
:FULLY-SPECIFIED
:DEGREES
151
root 0 0 0 1.6989642986421107 -10.792804528655775 0.7582585597932991
lowerback 0.09655300600793737 -1.5817181856492792 -2.44555657993728
upperback -0.6391667288414995 -2.0773227079643424 1.9901381620428924
thorax -0.5215727231006194 -1.0209207353914667 3.3749428080665984
lowerneck -24.769381514527176 -1.4937413860012083 -7.404752713032501
upperneck 28.20122795944208 0.6186703886606135 1.5375898990675592
head 13.699960256798715 -0.5308607320525096 2.103827493779428
rclavicle -2.3138936039496206E-15 -1.0330658302451306E-15
rhumerus -33.763667889177164 -4.50898311047829 -78.7530354580469
rradius 28.901062897721946
rwrist 20.496532582761347
rhand -17.360460368985024 8.854836723817227
rfingers 7.125019999999937
rthumb 8.882798459547963 -20.92834649365695
lclavicle -1.4107010141473937E-15 -8.433038347293946E-16
lhumerus -21.96078015072055 -5.698482303073528 91.78648180620456
lradius 65.23821005204833
lwrist 2.0545619728196196
lhand -28.754079642570478 21.01160899932713
lfingers 7.125020000000026
lthumb -2.1236303514816743 51.020083255813674
rfemur -8.78418803139823 7.4805433046405225 37.5761342144241
rtibia 27.224979253348973
rfoot -13.949280844883647 -6.2942855857739435
rtoes 14.698025574412249
lfemur -13.540025999292158 1.288395602062252 -14.413171557028601
ltibia 54.93157570326616
lfoot 4.909175743720468 -9.330176341443913
ltoes -9.009356461792676
152
root 0 0 0 1.6981822004681089 -10.77814347484725 0.7448013484992817
lowerback 0.08250921334143291 -1.5673427611217892 -2.460953991396877
upperback -0.6500076141703331 -2.0566923190830937 1.9644511830553575
thorax -0.5268064450527514 -1.0099936664834541 3.357798620645571
lowerneck -24.553176216062536 -1.493444648697178 -7.443584558905095
upperneck 28.488251594654812 0.5999490871806342 1.5587638686539518
head 13.759269748475042 -0.5440504464125128 2.11766596733096
rclavicle -3.7249708411550005E-15 8.518237547127231E-17
rhumerus -33.42445327649894 -4.86649872308996 -79.48023329612991
rradius 29.437727648169933
rwrist 20.396846949416048
rhand -17.317034653591808 8.747760210108767
rfingers 7.125019999999942
rthumb 8.925697082233095 -21.05041305113842
lclavicle -1.6055350290471276E-15 -1.5801304028896165E-16
lhumerus -22.017929213220814 -5.618207726687313 91.99045648060915
lradius 65.10514957493515
lwrist 1.8437202336672684
lhand -28.93541015963153 20.87412164136819
lfingers 7.125020000000025
lthumb -2.299429902515868 50.870310307114785
rfemur -2.8147798807257187 8.055193959631438 38.51153916858901
rtibia 25.84588313662498
rfoot -19.046174532245136 -7.16302309690796
rtoes 12.749623676855702
lfemur -20.271367359532135 2.650920512602116 -13.815059773551166
ltibia 56.815725657130656
lfoot -0.36785850033865763 -5.760508018728038
ltoes -7.562479365179353
153
root 0 0 0 1.706608321741791 -10.750198534869497 0.7476189010147715
lowerback 0.06165100264414258 -1.553157347828376 -2.4900367524054943
upperback -0.6610747649787494 -2.036823240647649 1.942159765924029
thorax -0.5282356899511456 -0.9989851210693244 3.351754747280811
lowerneck -24.452228839515833 -1.521350936552973 -7.493219917780983
upperneck 28.529892222216876 0.5342205285392605 1.6498313506633004
head 13.744661490919745 -0.5627424569757594 2.1472600436788167
rclavicle -2.856408465918615E-15 8.277768645526057E-16
rhumerus -32.76033571584205 -4.55307014660222 -80.43401944291475
rradius 30.175554620976964
rwrist 19.999536305897056
rhand -17.425497837022565 8.75867827259541
rfingers 7.1250199999999415
rthumb 8.821992501379999 -21.059033827584297
lclavicle -5.30242852161512E-16 4.836780348431954E-16
lhumerus -21.795671513349113 -5.297040335433257 92.00009368308599
lradius 64.97516393884288
lwrist 1.69625355620436
lhand -29.051342567600315 20.84373599998527
lfingers 7.125020000000025
lthumb -2.4117711784105467 50.83037715613535
rfemur 1.1853106713322479 8.579259652847968 38.7105067271656
rtibia 23.343664959469496
rfoot -22.215302021704996 -8.287168297417887
rtoes 9.434773343337419
lfemur -23.392777831837165 2.8884791820520603 -13.408764509518964
ltibia 55.526610815688386
lfoot -3.064295827788749 -3.8027197012112532
ltoes -6.6730228069124395
154
root 0 0 0 1.7301397776621175 -10.700078711335651 0.7663933886524251
lowerback 0.03519546345911517 -1.536859448861458 -2.5302911210343555
upperback -0.6613327011152489 -2.015452138079769 1.9176894237263689
thorax -0.515875386207924 -0.9870358797971828 3.350936465182587
lowerneck -24.450533724466414 -1.5886773853773395 -7.561848809354034
upperneck 28.34641369093635 0.39999104843984923 1.8276033050984533
head 13.656395172386782 -0.5940508922335892 2.1969759514523295
rclavicle -3.25915541476066E-15 1.0513829335532196E-15
rhumerus -31.384989849021544 -2.372421934137216 -81.85853842030531
rradius 31.426692886524336
rwrist 18.972714022479153
rhand -17.943034331189473 8.928294068974886
rfingers 7.1250199999999415
rthumb 8.32341012074752 -20.91472389460511
lclavicle 3.835612676443267E-16 2.792160773491666E-16
lhumerus -21.15856784135508 -4.397854296310328 91.61912198826734
lradius 64.75833043302268
lwrist 1.6612172881503962
lhand -28.95858435406787 20.731774177565022
lfingers 7.125020000000026
lthumb -2.3181767057087237 50.71436161157465
rfemur 4.966080857408121 8.96981679741644 38.29495837978847
rtibia 20.60511579232868
rfoot -23.596542149075702 -8.57699713969636
rtoes 4.178862632596361
lfemur -27.868617336047787 1.5434449893567859 -11.850657498036545
ltibia 46.48315866767105
lfoot -5.897335825790202 -0.16497020463110257
ltoes -5.6659121153239465
155
root 0 0 0 1.7476103484196623 -10.686677235628665 0.778190906634448
lowerback 0.012654024625487592 -1.532423885964271 -2.549530053375771
upperback -0.6568486673494992 -2.0099326465803236 1.8986336461074673
thorax -0.5001931054549947 -0.9839763621833225 3.3430025589701975
lowerneck -24.45432531649434 -1.6221404320744859 -7.599714886746821
upperneck 28.27844365439026 0.3371842648286312 1.9078102304728477
head 13.623266040772801 -0.609060994006575 2.219700204789932
rclavicle -7.381056104812924E-15 1.3466217577014718E-15
rhumerus -30.930984588619644 -0.9672742145694553 -82.21164342978062
rradius 31.82627635270179
rwrist 18.540714459759272
rhand -18.306553928930228 9.024699485559841
rfingers 7.125019999999945
rthumb 7.974508660133093 -20.845831993226852
lclavicle 4.564030098744588E-16 -8.30268922007932E-17
lhumerus -20.82067690940778 -3.8555239477285905 91.32159928455434
lradius 64.6586005662388
lwrist 1.7028005835569853
lhand -28.8182435425378 20.64792202209416
lfingers 7.125020000000027
lthumb -2.1795411794712516 50.63210117351597
rfemur 8.294886188798964 8.964758458712648 37.61443473667395
rtibia 20.941710381099817
rfoot -23.260898260920886 -7.880948595305382
rtoes 0.3139249078958146
lfemur -31.430217527240465 -1.1139648448387631 -9.930395288937198
ltibia 33.389117821942534
lfoot -6.853865191611355 3.505992427347069
ltoes -4.605190596058473
156
root 0 0 0 1.7541279374326328 -10.696390405226685 0.782492588599946
lowerback -0.003079581845072621 -1.53315186913532 -2.5592387144415176
upperback -0.6570492180705773 -2.010764086479451 1.8766361771141153
thorax -0.4922151579011943 -0.9839998456263277 3.3260641744426245
lowerneck -24.42125200588988 -1.626127744316852 -7.616007040157949
upperneck 28.351425806358282 0.328901057568293 1.914372862932065
head 13.640263044147463 -0.6128398207841209 2.2227936876029535
rclavicle -9.309651598635184E-15 1.5485326549187539E-15
rhumerus -30.83140345469565 -0.2610625206317687 -82.18468341821898
rradius 31.8695042034502
rwrist 18.37073125865061
rhand -18.498960168820926 9.10567737092171
rfingers 7.125019999999945
rthumb 7.789765602019804 -20.781846944101293
lclavicle 6.027986573627665E-16 -2.180183063857777E-16
lhumerus -20.585147005220584 -3.2541026689656833 91.0871245137952
lradius 64.54012500813513
lwrist 1.6693003410653655
lhand -28.726130945352622 20.575644118169873
lfingers 7.125020000000028
lthumb -2.0862225303444744 50.55839937253365
rfemur 12.237848217428757 8.515128515733657 36.360730616583425
rtibia 25.01501134616603
rfoot -21.34577934434454 -6.25639560239295
rtoes -4.114220796911963
lfemur -31.458501916262804 -4.268434687830117 -8.908504208093362
ltibia 22.445237522788137
lfoot -5.481799877623079 4.4502963099212405
ltoes -3.842214586245408
